# xmcd CD database file
#
# Track frame offsets:
#	182
#	13045
#	24470
#	38932
#	51870
#	66420
#	82095
#	94957
#	107882
#	123320
#	135032
#	146745
#	156445
#	167345
#	181357
#	192795
#	205457
#
# Disc length: 2891 seconds
#
# Revision: 0
# Processed by: cddbd v1.5.1PL0 Copyright (c) Steve Scherf et al.
# Submitted via: CDex 1.51
#
DISCID=ef0b4911
DTITLE=Various Artist - Toutes Les Musiques Du Monde
DYEAR=1995
DGENRE=Salsa
TTITLE0=Piensa En Mi - Agustin Lara
TTITLE1=El Jarabe Tapatio - D.P. Canta - Mariachi Solo
TTITLE2=San Diego - D.P. Canta - Mariachi Solo
TTITLE3=El Torito Tabasqueno - Lauro Aguilar Palma
TTITLE4=El Gusto - Elpidio Ramirez, Can
TTITLE5=Tres ConseJos
TTITLE6=El Pastor
TTITLE7=Son De La Negra
TTITLE8=La Verdolaga
TTITLE9=El Pasacalles
TTITLE10=El Panuelo
TTITLE11=Los Laureles
TTITLE12=Laguna De Pesares
TTITLE13=Las Mananitas
TTITLE14=Guadalajara
TTITLE15=Cielito Lindo
TTITLE16=Alla En El Rancho Grande
EXTD=YEAR: 1995
EXTT0=
EXTT1=
EXTT2=
EXTT3=
EXTT4=
EXTT5=
EXTT6=
EXTT7=
EXTT8=
EXTT9=
EXTT10=
EXTT11=
EXTT12=
EXTT13=
EXTT14=
EXTT15=
EXTT16=
PLAYORDER=
